<svg xmlns="http://www.w3.org/2000/svg" width="28" height="28">
    <path fill="#1B335B" fill-rule="evenodd" d="M17.782 15.54l-.068-.008H15.77c-.364 0-.489.204-.526.335a4.054 4.054 0 01-7.798 0 .516.516 0 00-.48-.335H4.975l-.068.008a.756.756 0 00-.643.925 7.285 7.285 0 0014.162 0 .756.756 0 00-.643-.925zm-7.304-3.08l.068.008h1.945c.364 0 .489-.204.526-.335a4.053 4.053 0 017.798 0 .516.516 0 00.48.335h1.991l.068-.009a.755.755 0 00.644-.924 7.285 7.285 0 00-14.163 0 .754.754 0 00.643.924zM14 28C6.268 28 0 21.732 0 14S6.268 0 14 0s14 6.268 14 14-6.268 14-14 14z"/>
</svg>